<svg xmlns="http://www.w3.org/2000/svg" width="85" height="58" viewBox="0 0 85 58" fill="none">
    <path
        d="M58.5945 36.8297C57.6705 36.8297 57.0237 36.8297 56.4945 36.7551V30.2177H58.3425C61.0389 30.2177 63.2061 31.1374 63.2061 33.4491C63.2061 35.8934 61.0473 36.8214 58.5945 36.8214M56.4945 21.6751H58.8045C61.2657 21.6751 62.5593 22.5037 62.5593 24.2602C62.5593 26.0168 61.1565 26.4145 58.2753 26.4145H56.4945V21.6668V21.6751ZM32.4285 17.2754L33.8229 21.6751H39.5097V40.4588H44.9109V21.6834H51.1353V40.3677C52.3365 40.5417 54.3357 40.7157 56.9901 40.7157C61.7529 40.7157 64.6677 39.9534 66.4065 38.6194C67.8933 37.4511 68.8929 35.794 68.8929 33.6645C68.8929 30.6982 67.0029 28.6931 64.2729 28.0137V27.9474C66.9777 26.9448 68.0781 25.1717 68.0781 23.1334C68.0781 21.0951 66.9021 19.4297 65.2305 18.5597C63.4497 17.5571 61.4589 17.292 58.1493 17.292H32.4201L32.4285 17.2754ZM29.1357 30.5822L27.6405 25.6771C27.2121 24.2934 26.7837 22.57 26.4309 21.1945H26.3553C26.0025 22.57 25.6497 24.3265 25.2633 25.6771L23.8353 30.5822H29.1273H29.1357ZM23.0541 34.5014L21.3489 40.4588H15.7713L23.0457 17.2754H30.1521L37.6197 40.4588H31.7565L29.9085 34.5014H23.0457H23.0541Z"
        fill="#0072F0" />
    <path d="M79.46 4.97143V53.0286H5.54V4.97143H79.46ZM84.5 0H0.5V58H84.5V0Z" fill="#0072F0" />
</svg>