<svg xmlns="http://www.w3.org/2000/svg" width="85" height="58" fill="none"><path d="M58.594 36.83c-.924 0-1.57 0-2.1-.075v-6.537h1.849c2.696 0 4.863.92 4.863 3.231 0 2.444-2.159 3.372-4.612 3.372m-2.1-15.146h2.31c2.462 0 3.755.829 3.755 2.585 0 1.757-1.402 2.154-4.284 2.154h-1.78v-4.747.008Zm-24.066-4.4 1.395 4.4h5.687V40.46h5.4V21.683h6.225v18.685c1.202.174 3.2.348 5.855.348 4.763 0 7.678-.763 9.416-2.097 1.487-1.168 2.487-2.825 2.487-4.955 0-2.966-1.89-4.97-4.62-5.65v-.067c2.705-1.002 3.805-2.775 3.805-4.814 0-2.038-1.176-3.703-2.847-4.573-1.781-1.003-3.772-1.268-7.082-1.268H32.42l.008-.017Zm-3.292 13.307-1.495-4.905c-.429-1.384-.857-3.107-1.21-4.482h-.076c-.352 1.375-.705 3.131-1.092 4.482l-1.428 4.905h5.301Zm-6.082 3.92-1.705 5.957H15.77l7.275-23.184h7.106L37.62 40.46h-5.863l-1.85-5.96h-6.862.008Z" fill="#0072F0"/><path d="M79.46 4.971V53.03H5.54V4.97h73.92ZM84.5 0H.5v58h84V0Z" fill="#0072F0"/></svg>